<?xml version="1.0" encoding="UTF-8"?>
<svg width="498px" height="252px" viewBox="0 0 498 252" version="1.1" xmlns="http://www.w3.org/2000/svg" xmlns:xlink="http://www.w3.org/1999/xlink">
    <!-- Generator: Sketch 43.2 (39069) - http://www.bohemiancoding.com/sketch -->
    <title>icon-periscope-1</title>
    <desc>Created with Sketch.</desc>
    <defs></defs>
    <g id="Branding" stroke="none" stroke-width="1" fill="none" fill-rule="evenodd">
        <g id="icon-periscope" transform="translate(-434.000000, -316.000000)" stroke-width="10">
            <g id="icon/periscope-1" transform="translate(439.000000, 320.000000)">
                <path d="M244,214 L238.005031,214 C233.573817,214 228.938678,217.419814 227.629472,221.638369 L223.370528,235.361631 C222.05888,239.588054 217.420142,243 213.004164,243 L119.992464,243 C111.164664,243 105.118401,235.921039 106.498017,227.188698 L111.583489,195 L12.0000766,195 C5.37261729,195 0,189.628874 0,183 C0,176.372583 5.36967945,171 12.0000766,171 L115.375234,171 L120.460706,138.811302 C121.840055,130.080656 130.122965,123 138.960506,123 L244,123 L349.039494,123 C357.877035,123 366.159945,130.080656 367.539294,138.811302 L372.624766,171 L475.999923,171 C482.627383,171 488,176.371126 488,183 C488,189.627417 482.630321,195 475.999923,195 L376.416511,195 L381.501983,227.188698 C382.881599,235.921039 376.835336,243 368.007536,243 L274.995836,243 C270.579858,243 265.94112,239.588054 264.629472,235.361631 L260.370528,221.638369 C259.061322,217.419814 254.426183,214 249.994969,214 L244,214 Z" id="Combined-Shape" stroke="#80BCFF"></path>
                <path d="M305.426407,213.426407 C321.994949,213.426407 335.426407,199.994949 335.426407,183.426407 C335.426407,166.857864 321.994949,153.426407 305.426407,153.426407 C288.857864,153.426407 275.426407,166.857864 275.426407,183.426407" id="Oval-2" stroke="#FFFFFF" stroke-linecap="round" transform="translate(305.426407, 183.426407) rotate(-135.000000) translate(-305.426407, -183.426407) "></path>
                <path d="M182.573593,213.426407 C199.142136,213.426407 212.573593,199.994949 212.573593,183.426407 C212.573593,166.857864 199.142136,153.426407 182.573593,153.426407 C166.005051,153.426407 152.573593,166.857864 152.573593,183.426407" id="Oval-2" stroke="#FFFFFF" stroke-linecap="round" transform="translate(182.573593, 183.426407) rotate(-135.000000) translate(-182.573593, -183.426407) "></path>
                <path d="M165.333333,1.49588484 L165.333333,123" id="Line" stroke="#80BCFF" stroke-linecap="round"></path>
                <path d="M328,21 L328,121" id="Line" stroke="#80BCFF" stroke-linecap="round"></path>
                <path d="M166.5,96 L226.5,96" id="Line" stroke="#80BCFF" stroke-linecap="round"></path>
                <path d="M166.5,60 L226.5,60" id="Line" stroke="#80BCFF" stroke-linecap="round"></path>
                <path d="M166.5,24 L226.5,24" id="Line" stroke="#80BCFF" stroke-linecap="round"></path>
            </g>
        </g>
    </g>
</svg>